# xmcd CD database file
#
# Track frame offsets:
#	185
#	13567
#	35680
#	59917
#	82620
#	102872
#	135632
#
# Disc length: 2177 seconds
#
# Revision: 5
# Processed by: cddbd v1.5.2PL0 Copyright (c) Steve Scherf et al.
# Submitted via: CDex 1.70beta2
#
DISCID=53087f07
DTITLE=Alexis Korner - Testament
DYEAR=1984
DGENRE=Blues
TTITLE0=One Scotch, One Bourbon, One Beer (Live)
TTITLE1=Stump Blues (Live)
TTITLE2=Stream Line Train and My Babe (Live)
TTITLE3=32-20 Blues (Live)
TTITLE4=High-Heel Sneakers (Live)
TTITLE5=Will The Circle Be Unbroken (Live)
TTITLE6=Mary Open The Door (Live)
EXTD=YEAR: 1984
EXTT0=
EXTT1=
EXTT2=
EXTT3=
EXTT4=
EXTT5=
EXTT6=
PLAYORDER=
